#!OML:ASF F:\twosubjects\two\Thursday\Session 1\justin.ASF
:FULLY-SPECIFIED
:DEGREES
342
root 9.63815 18.3525 3.76854 -165.225 43.2827 -170.848
lowerback 3.64598 1.20683 -1.4049
upperback 7.42144 1.96043 2.20014
thorax 5.53612 1.01282 3.11482
lowerneck -10.5826 -7.42309 -5.07094
upperneck 39.6914 -10.466 11.0672
head 17.3164 -2.59279 4.4402
rclavicle 5.08889e-014 -6.75868e-015
rhumerus -19.2733 -4.84135 -82.0528
rradius 46.3732
rwrist -12.1814
rhand -17.3682 12.2959
rfingers 7.12502
rthumb 8.88003 -17.4973
lclavicle 5.08889e-014 -6.75868e-015
lhumerus -33.7489 -19.5635 91.8662
lradius 47.4451
lwrist 0.349268
lhand -5.89738 29.8362
lfingers 7.12502
lthumb 19.931 58.8342
rfemur -19.4263 -2.41836 27.6279
rtibia 27.3087
rfoot -15.6502 -4.14477
rtoes -7.10602
lfemur -16.2973 0.402685 -9.22524
ltibia 18.7909
lfoot -8.11525 -2.58343
ltoes -17.5813
343
root 9.62853 18.3562 3.74463 -165.395 43.778 -171.178
lowerback 3.5685 1.33475 -1.79347
upperback 7.45338 2.13659 1.95051
thorax 5.60053 1.08311 3.07723
lowerneck -10.6105 -7.54465 -5.04982
upperneck 39.7213 -10.7243 11.2399
head 17.3966 -2.67142 4.475
rclavicle -2.80286e-014 1.43125e-014
rhumerus -19.7069 -4.86929 -82.204
rradius 46.2393
rwrist -12.2245
rhand -17.7027 12.1818
rfingers 7.12502
rthumb 8.55722 -17.6248
lclavicle -2.80286e-014 1.43125e-014
lhumerus -33.8267 -19.9201 91.7686
lradius 47.3595
lwrist -0.0663767
lhand -6.08224 29.3333
lfingers 7.12502
lthumb 19.7533 58.3496
rfemur -19.4577 -2.26514 27.1802
rtibia 27.2958
rfoot -15.6719 -3.86279
rtoes -7.61255
lfemur -16.1375 0.568093 -9.65788
ltibia 18.7189
lfoot -8.28364 -2.43278
ltoes -18.1005
344
root 9.61974 18.3626 3.72565 -165.315 44.4639 -171.332
lowerback 3.45515 1.52349 -2.31763
upperback 7.37308 2.38008 1.84427
thorax 5.55105 1.17417 3.26339
lowerneck -10.5213 -7.603 -5.26875
upperneck 39.7824 -10.836 11.4931
head 17.4719 -2.71563 4.62527
rclavicle -1.64991e-014 2.74323e-014
rhumerus -20.1493 -5.10466 -82.1896
rradius 45.8959
rwrist -11.7492
rhand -17.0316 12.9151
rfingers 7.12502
rthumb 9.20485 -16.864
lclavicle -1.64991e-014 2.74323e-014
lhumerus -34.0699 -20.4046 91.9324
lradius 47.2059
lwrist -0.243561
lhand -6.53095 28.5486
lfingers 7.12502
lthumb 19.3219 57.6087
rfemur -19.5905 -1.85079 26.8206
rtibia 27.2198
rfoot -15.6032 -3.49983
rtoes -6.96299
lfemur -16.1603 0.827172 -9.98216
ltibia 18.8434
lfoot -8.48046 -2.08095
ltoes -18.7872
345
root 9.60996 18.3631 3.7089 -164.668 44.9812 -170.676
lowerback 3.20708 1.69175 -2.10614
upperback 7.39314 2.60668 1.79985
thorax 5.70618 1.29485 3.11161
lowerneck -10.7293 -7.73989 -5.39323
upperneck 40.0312 -11.0963 11.7333
head 17.7542 -2.79062 4.74053
rclavicle 1.90833e-014 -1.82882e-014
rhumerus -20.4182 -5.56325 -82.2718
rradius 45.4671
rwrist -11.2425
rhand -16.3318 13.1236
rfingers 7.12502
rthumb 9.88003 -16.6246
lclavicle 1.90833e-014 -1.82882e-014
lhumerus -34.1666 -21.0928 91.9294
lradius 47.0303
lwrist -0.319955
lhand -7.2173 28.381
lfingers 7.12502
lthumb 18.6618 57.5059
rfemur -19.6973 -1.56298 27.1565
rtibia 27.1313
rfoot -15.5576 -3.20132
rtoes -6.5972
lfemur -16.2612 1.28639 -9.65733
ltibia 18.9973
lfoot -8.56116 -1.88852
ltoes -18.0732
346
root 9.59799 18.3629 3.68792 -164.066 45.3388 -170.044
lowerback 2.98437 1.80895 -1.77074
upperback 7.41439 2.765 1.72961
thorax 5.86085 1.39004 2.86348
lowerneck -11.0811 -7.90921 -5.1966
upperneck 40.3715 -11.3427 11.5082
head 18.0499 -2.8643 4.57586
rclavicle -4.37326e-014 3.4191e-014
rhumerus -20.6906 -5.73307 -82.4316
rradius 45.0514
rwrist -11.3213
rhand -16.0969 13.1334
rfingers 7.12502
rthumb 10.1066 -16.6039
lclavicle -4.37326e-014 3.4191e-014
lhumerus -34.3598 -21.9486 91.8476
lradius 47.1853
lwrist 0.293178
lhand -7.54118 28.7901
lfingers 7.12502
lthumb 18.3503 57.9445
rfemur -19.7621 -1.42529 27.4862
rtibia 27.0386
rfoot -15.5389 -2.89057
rtoes -7.0816
lfemur -16.3586 1.62205 -9.33397
ltibia 19.1347
lfoot -8.59639 -1.73559
ltoes -17.054
347
root 9.58679 18.3668 3.66933 -163.936 45.6675 -170.199
lowerback 2.7911 1.88752 -2.12944
upperback 7.31802 2.86405 1.6269
thorax 5.85239 1.41663 2.96327
lowerneck -11.1861 -7.96324 -4.78422
upperneck 40.4489 -11.3628 10.9557
head 18.0236 -2.8789 4.22714
rclavicle -6.1822e-014 -2.34566e-014
rhumerus -20.9799 -6.09191 -82.4167
rradius 44.418
rwrist -10.4307
rhand -15.1956 13.8299
rfingers 7.12502
rthumb 10.9761 -15.8632
lclavicle -6.1822e-014 -2.34566e-014
lhumerus -34.7516 -22.8699 92.0259
lradius 47.4603
lwrist 0.953539
lhand -7.64142 29.0066
lfingers 7.12502
lthumb 18.2538 58.1702
rfemur -19.937 -1.25374 27.2103
rtibia 26.9294
rfoot -15.4792 -2.69038
rtoes -7.49581
lfemur -16.5759 1.81653 -9.60921
ltibia 19.2602
lfoot -8.6508 -1.59191
ltoes -17.0911
348
root 9.5721 18.3706 3.65008 -164.095 45.8853 -170.578
lowerback 2.71926 1.9018 -2.5533
upperback 7.27197 2.88465 1.51276
thorax 5.83151 1.40409 3.08293
lowerneck -11.1159 -7.90411 -4.41264
upperneck 40.2692 -11.2444 10.5224
head 17.7938 -2.84989 3.95229
rclavicle -7.5737e-014 3.1408e-014
rhumerus -21.2556 -6.43236 -82.3509
rradius 43.8474
rwrist -8.99816
rhand -14.3872 13.8132
rfingers 7.12502
rthumb 11.7557 -15.8369
lclavicle -7.5737e-014 3.1408e-014
lhumerus -34.8684 -23.38 92.127
lradius 47.6812
lwrist 1.77079
lhand -7.36395 29.8723
lfingers 7.12502
lthumb 18.5208 59.0106
rfemur -20.0132 -1.20397 26.7956
rtibia 26.844
rfoot -15.4599 -2.61809
rtoes -7.32299
lfemur -16.5957 1.89882 -10.0225
ltibia 19.2515
lfoot -8.99624 -1.54883
ltoes -18.8259
349
root 9.55385 18.3761 3.62729 -164.217 46.0419 -170.673
lowerback 2.76909 1.8943 -2.62482
upperback 7.29354 2.87955 1.42804
thorax 5.82781 1.40071 3.03303
lowerneck -11.2135 -7.92623 -4.57696
upperneck 40.5075 -11.3237 10.8245
head 18.0265 -2.84632 4.13638
rclavicle -3.18055e-015 9.54166e-015
rhumerus -21.6747 -6.12946 -82.4162
rradius 43.5448
rwrist -8.84266
rhand -14.4276 13.3489
rfingers 7.12502
rthumb 11.7168 -16.3034
lclavicle -3.18055e-015 9.54166e-015
lhumerus -34.8596 -23.6473 92.089
lradius 47.7195
lwrist 2.37127
lhand -7.12699 30.2595
lfingers 7.12502
lthumb 18.7487 59.376
rfemur -19.9259 -1.25817 26.5933
rtibia 26.7817
rfoot -15.4785 -2.38627
rtoes -6.66841
lfemur -16.3979 2.02445 -10.2143
ltibia 19.0914
lfoot -9.21708 -1.6795
ltoes -19.8883
350
root 9.54044 18.3814 3.60527 -164.141 46.3042 -170.634
lowerback 2.62965 1.94246 -2.63008
upperback 7.31956 2.95112 1.32153
thorax 5.93523 1.43599 2.93368
lowerneck -11.5667 -8.08749 -5.31479
upperneck 41.2843 -11.7155 12.0101
head 18.8994 -2.89223 4.87769
rclavicle 8.36883e-014 -1.66979e-014
rhumerus -22.0955 -5.91861 -82.5653
rradius 43.2712
rwrist -9.12728
rhand -14.3103 13.1751
rfingers 7.12502
rthumb 11.8299 -16.4707
lclavicle 8.36883e-014 -1.66979e-014
lhumerus -34.9221 -24.0937 92.044
lradius 47.5119
lwrist 2.3991
lhand -7.75332 28.8504
lfingers 7.12502
lthumb 18.1462 58.0239
rfemur -19.9266 -1.23643 26.4824
rtibia 26.7209
rfoot -15.474 -2.1047
rtoes -6.65482
lfemur -16.2925 2.55205 -10.3456
ltibia 18.8757
lfoot -9.21809 -2.17481
ltoes -18.9833
